<mxfile host="65bd71144e">
    <diagram id="HIP3nbAZw_EuaXWnEj3U" name="Page-1">
        <mxGraphModel dx="826" dy="520" grid="1" gridSize="10" guides="1" tooltips="1" connect="1" arrows="1" fold="1" page="1" pageScale="1" pageWidth="850" pageHeight="1100" math="0" shadow="0">
            <root>
                <mxCell id="0"/>
                <mxCell id="1" parent="0"/>
                <mxCell id="7" value="http://ics2o.mths.ca" style="swimlane;whiteSpace=wrap;html=1;" parent="1" vertex="1">
                    <mxGeometry x="40" y="40" width="760" height="480" as="geometry"/>
                </mxCell>
                <mxCell id="10" value="&lt;span style=&quot;&quot;&gt;Lengths of a triangle, in JavaScript&lt;/span&gt;" style="rounded=0;whiteSpace=wrap;html=1;fontSize=18;" vertex="1" parent="7">
                    <mxGeometry y="20" width="760" height="60" as="geometry"/>
                </mxCell>
                <mxCell id="14" value="Length selected" style="text;html=1;align=center;verticalAlign=middle;resizable=0;points=[];autosize=1;strokeColor=none;fillColor=none;fontSize=12;" vertex="1" parent="7">
                    <mxGeometry x="32" y="150" width="110" height="30" as="geometry"/>
                </mxCell>
                <mxCell id="19" value="CHECK" style="rounded=1;whiteSpace=wrap;html=1;fontSize=12;" vertex="1" parent="7">
                    <mxGeometry x="42" y="300" width="100" height="40" as="geometry"/>
                </mxCell>
                <mxCell id="20" value="" style="shape=image;verticalLabelPosition=bottom;labelBackgroundColor=default;verticalAlign=top;aspect=fixed;imageAspect=0;image=data:image/png,iVBORw0KGgoAAAANSUhEUgAAAVQAAADnCAIAAADO2TmNAAAAAXNSR0IArs4c6QAAIABJREFUeAHtfQ1wVdW1f2YijBGGaBSDDjY19RHqQ2JEY6piCMIdy1TSiNFX6jNGY62vziT+jVVbXhONPm3rpHmpbZ22pnnx+dknkba2WktiFPxATSKKyqC5KKAY4EagonycPX8Xv+O6J+frnnvvOeeec7PvZOB87LP22mvv315rr7332jlC/qQEpAQmpARyJmSpZaGlBKQEhAS/bARSAhNUAhL8E7TiZbGlBCT4ZRuQEpigEpDgn6AVL4stJSDBL9uAlMAElYAE/wSteFlsKQEJftkGpAQmqAQk+CdoxctiSwlI8Ms2ICUwQSUgwT9BK14WW0pAgl+2ASmBCSoBCf4JWvGy2FICEvyyDUgJTFAJSPBP0IqXxZYSkOCXbcBEAmMxMdAvxmImr+SjrJGABH/WVKWbBRnoF3m5ykC/mzQlraBJQII/aDXiIT8D/SIaJZUejSbIJTXwr+olssNDieknyF6+9kUCEvy+iNmbTFb1irZWpa1VAeqsMhmLiZ5uUVKsQJm3tdJFbY3dVwz+nm7KYnjIijY9H4uJzg6VvhCUHvQTGg4D/ZS4p1uOL+zE6907CX7vZOst5fIywlh5mVJYQBfNTYoxv2hUNNSrCRjtWqyWFCudHSbYA/gLC+hb0O/pNpInJd9QT7lr0a6jb4Xt2hr6Cl1SYYEi/Qsm8vX4kQS/xwL2hnxPN43JGZDoAnRZAZaFBdQvmNr5A/0qdAsL4qRABOCvrSFMjsWEDf2SYjI9TOmv6hVAeGGB3nbo7CD+Ozsot2iUrk07L12J5K27EpDgd1eevlIbHiJ7vq1V1Z+6vFm1mup2oK65yVyxA/zcucCS1xn/oF9eZmm3a+0O3bfNTaT2Wdvr3uoKIm89koAEv0eC9ZYstDHs7UiVEqkiLBmz1Or2hvq4+l3VK/CJlV0A8DMmV/WaO/8H+uO6XWtf9HTH6ZvaBZEqGrAYGZZP/JSABL+f0nYtL6hi1sxW4Ed+0ShZBxi6w8eGwbbVaFwImhHIy417BDGC4L5AV4xoVLAFwQ4/WAS6lHwLq4EHCw310uxn2fh3IcHvn6xdzAljZjj5cW2q+XU59nSrU31O/PDoIAb6aWRRWEAjCx013S3mFNBxJKQPn0VDPTkLdP4LHVl5650EJPi9k62HlMdi6tRaXi6pdChSK82cAh/Q/BiZ5+UqQGkKdGw+4dlBzBTYpJSvPJKABL9HgvWD7PAQ2eee/qJRb1fsDA+ZTDR6WiJJnCUgwc+ikBdSAhNLAhL8E6u+ZWmlBFgCEvwsCnkhJTCxJCDBP7HqO4XSbngzhY/kJyGQgAR/CCopgyy+sJYm/I+blmCeL4McyqxTloAEf8qiy/4PY7vExUtp7WBervLO29lf3olWQgn+iVbjjsp78KDoXy3OO5tgf1oJ/dvR7uhDmShEEpDgD1Fl+cfqlg/EokrC/LcuVNY8T5b/4gXS8vdP/v7kJMHvj5zDlMu6l0XNRYT8M0uVZ/uI82Om0G2YyiB5dSABCX4HQppISQZfE2edTlC/9GJl21a15Muq6cma5yeSICZAWSX4J0AlOy7iRx+qW3TPPkMZfC3+2R/uJ8v/x7dI5R+XSRZcSfBnQSW6U4Rn+8S8uaThL16qvPzSOJpbtxD4582V4B8nlrDfSPCHvQbd4X/XTrEkQsiPVClbt5jQPHkmvd271+SVfBRSCUjwh7TiXGP74EHRukJ860LC9vwKpe8f4uBBE+LXXk0J/vSEySv5KKQSCCL4ERbCNCI1ws4P9NNWVvxxNBiuAASrsY9mzYnlxcZ3xPHHELCXVSuxXZby+NMTZPlfUy8tf0sRhe5F4MAfjapxYxCaKlI1rrUhfBXWnOHftlaTBIg2q/s2dHXjA8ObNonpRxPyZxyrPPWkXYaffkrgP3nmOGnbfSDfBV4CgQM/Yj8irisCVDmX4ViMGii6g4F+CjhttAucU8v6lGueVz18044k/F93jbJxo12h4Q409QjYfSbfBVUCgQO/EBTUrbZGDUetW1sCkx7H1OBfbSgbXczZoMo8EHyNxdSVPOedrdx9p5hZSPi/cJHyYI84dMicwx/dTGnu/535W/k0dBIIHPih7ZubKHQsjHytTGEXIFg1/uUIthxzlkPZ2USn1dKcaNcHDohn+8TC+YTkyEKlf7U4cEB0/V7MnU1P8nKVpUuUn99Na/u3bSXn37atdP3zu8X536C3y6ql5Z8lTSZw4K+tUSO6c2h655KG2d9QT6dBoBORZr9Reu9vVpG/dImyYzT+vn+1uKpOmTJJ7QK0jhXt9dTJEvxxoYX6KnDgH+gnhx+CzJcfPo4uKQCv6o2HtdX5AkNdT24x/9qr4pJvE7zPOE1dt6+j/PenxIpbyf4vPkmZOln9Kz6Jnqy4VcHK3/Wv6z6St6GUQODADyk6OUbaRt4yJqypcNa9HF+3n1SXytQ62sml+rO7+IG8CLEEAgr+EEs0qKzv3BFft+9EdcPnolsu8c7bBP7Kc6TlH9RqToYvCf5kpBXOtIpCHjuMoZYuUV5Ya+nP5/Jh8IVDvrTzKUKo6wI4pbwIrwQk+MNbd0453/6R+OZiGudHFiofbnP0VXOTen425lO133ynlkjpegRtAnkdFglI8IelplLh89AhsXaNWLqE4FpeRrN6VnP4OuqRKhXemFvVvn3oAbL8b7ohOy1/rB/XljeLryX4s7hyxfrXxTlnEfKXVSu7diZR0kiVekRvZ4doGL+ef/RjAv/c2dkJfuPSkiSkFrakoQQ/pp3DJmq/+X3vPXHpxYT8eXP1+/MTstLcpJ6Z3VCvLpfWfjLrZCK7+xPtsyy5luAPdEW+v5k0T16u8v7mQPOZWeae7RNlc0hKl3xb4SWPzlkaHqLlEiXFtOAC+yy0317/faK88v+0zwJxjRkK0/2gQgica8r7QXGhKx2Dv6eb1omZTojqKODWWH6cPt7Wmor8jdS8eBI+zf/b+1Tw//Y+LwSSDTR3jKrj/IXzlc3R1Etk5dV7+m9UBfVXBMvyx3QGNnTm5aqWi7bw2CeqXa1o9FwC/Oj4cPy5sevUUTC1Q4eHaK1aXi51oDjjXMtJQK7DB364r7AEPSBCDA4bWLePVn7B+bSG78AB97nbv5/AP7MwQODv6SaWeKMHugBdyZ1r/uYmKhp2lxs3hjvR/JEqMppgOKBDMXYiOvb8vw0f+KcdSevPp0xSph0ZoMbnf82Z5vjuu2LBuaRqai4yMdf5E+PmSG6mvGPSSu2DyNlnUC6mVjHn4v/F8BBtCW1rVfVtCgzogFpbQ8VMgU5erlJbE/8waIJCiUIG/uEh6uAvXER/ebnBHU2l0FzS/2T963EPn32Ybe3mSFinw0Ok6BDDz7hd0sjbbT8h+Qdn5MXbwLgIRtA6N/u5vOwC4CdCkJSMf9oESBP8rSUhA/9/tZHo7+0U93bSxX+16WQ+cW9ffEGNzFFbo2za5FQOsGzRTFf1kkgdfrnuZUq8dInT9A7JppwMKGWzHzjXUXNu9rOJDj+Cjo4Tsx99ED6MRgVPnepIZfY2ZOCfX0Gd7qZNYtMmanzzK4LS+DJbi7t2qnv1vnGm8taGJHiJVKkbqIVQreWGerJXGUU2tKZODtDICzu4sRMB1847Mm0Z0YlEqsiohB9Bt8xBm9jmGuOFnm6yp2przCdNbD7351WYwH/wIAF+xrEq4GccSx2BaahZf2QXhFwOHhR9/xDnlpMovnWh8vxz5rF3TVnFGIrH9vBRtbUqDfVErbPD9KP4Q4T61p7tEX/n+9VYLL6Vu7CA+q/URoUAPyRQWECi0M0FOizZWIwWR2FIVVjgqDN1SNnFZGEC/+pnCPxXLFfBf8VyquDVz7gojUCQsglebORv21YyKfNylW8uVkY/Nr63e9JQH1f7QoixWHxaW/fKlApGXoEa2cKwN+U22YfRKAkkzd9YjGJMB/YXJvDf2Eit/JEHVWE+8iD1BTc2ZpXlbx+8WNuMFEW89KIah2/eXFq3n+yvsGCcem9rjW/XaW4ih7k9wffeI/mfW54gmT0R+TaDEggT+E89hcDPa9R37aTGd+opWdX4nAcvHhoUFfNIILU1yvaPkm5C8O1r9VJDPQEe+r+k2GSRjDGPE6cTAxN85GUUS1iehAb8plDXdQdhEbo9nzbBi/nDrVvEZcsIeGedrrz2Kj9O4gKRjrWWbTSq7vnHijTtKyu6dZcTD888bfU+lM/XrhGremk3ZNb/QgN+GPlN14/T803XU+PjgUAW1JZ98GIUkE/UrLlIeWWdy4VOaqz76MNkfOkqxWWG/CW3f7/aA5aXKfv3+5u377mFBvym7j2dC9B36bmfYcLgxTtG1XP1Ljhf+eB99xlIiiLMsdlm3oGxGOlPq70xSeXiZ2JEK0AI44ce8DPnDOQVGvCbDi8x+Xfi9HHmQAak6F6WNsGLDxwQA8+qZ+nOr1Dj7buXc4qU5swi40sbAhwTB1geg5kIJ6sGUsze1c8+3i5Onkkrx6+9mv49eaby8XZXMwgYsXCAH0t6TB3LmOJ2vqYtYPI3Z8c0ePHGdwTWONVcZHeipjlFz57qpmCQj/bQhOYmmi33LH83Ca+4lTqyBefSpCm2SKy4NRycpyaFcIDfZjEvL/hNrfxh+ertt1QP3xmnKYHyRfWvpmH/dy8bBxInywSCJvm336KCTJlEAU6FEC+sFTD+334raJy6xk84wI9tPKaLyXB09IWLxjU+18QTDEJrnlcjc9TWJLd61wf2Dx0izPCyS+SIWUNcDw/R4D/4PwQmvapOwSboAwfo/KK8XOU7tVnbtMIB/imT6OiYRx8Wb20Qe/fS31sbxKMPixsb6eQZ02gKwW9tDjmM7VJX8syvSHCKrkOCrifjDRdMGWY/FhHU1ijGLfGcMiAXsF+OmzYu9snmqDhuGrWuFBZQBaRc9myEAPzYQGbcRMlPUEPrXrYvafjeHjhA8fYrz6H2983FtPzOi8gc6cvl7jtJ+ev2AvDK9pLi+MLB9PPygsKnn9L03pRJyl136MnfdQcZ/+Vlyqef6l9lwX0IwN+yglr/ueVK2RzluGnxv7I5tM7/3k5x20+o8bWsyDbz7P3N4oLzqexLlyg7dwS3sXGQBR2LYzEKmxf8HwLDzT68ulHH7VhMzD4chys4kQt0HKZzGwLwI2iMTbhOhPQ8+4ysAv+rr4iLlxLyzywNuuYUQkw7klhNpyFm6tutW8SJ00ntP/aIOQuPPULK/8TpytYt5gnC+zTo4P/8c9LqJ81I0LBOmkGN7/PPw1sR4zh/ZZ04s5RKdNmyzK/kGceZxU3NRcTtSy9avA7wY0xVfnOxpWH/6afqeUdZtoVMCBF08P/1LwT+q69MAP6rr6TG99e/BLiVOWZt9GM1MkfFvNDEKYPlHLqR1+vD1LqmTlaGBu2qZ2hQTJ1MDez1YbtkoXsXdPA7DBG/8v+oFq//foI+IvjV079a1fk1FykvviCUkBRoywck/7NODwm7X7YDRIK+/vuK/Slmhw4JtMPghC37sgRp/R908J9SRD1uwsNhdn9Cje+UopA1Pl3VfbxdYEWD8xM1dRQyeIuR1759GWQhuaxhVB5/jLJta+IPt20Vxx+TPdYlChxo8Cd1LNzc2VQ3yUazSVztvqQ4eFCseV7dsXPOWUrfP5yeqOkLd44yCdfIa/cnYu5s8vN1tDsqnRCio508f3NnJ1ZFTilmOl2gwf+//0P6/OYbHenzm28k8P/v/2Raoinlv+FN8Y0zif/amgCt20+qKOEaeXW0U9Mqm5MEknd/oq6zdN5fJCVA/xMHGvyIV/HcgCOxPDdA1XnZMkc9hSOKfiV6910K8IpZvTA6zCGnPbtDM/LafPiEAoQ8TWqjxF//Qsp/6uRxCwH9aibu5xNo8E8/miDhvNB5ucr0o5NI75yydymffy4ebz/szuTSU6m+Uogp5p14TSlfdw3xib/ZxWRaOlEwzw2I5huUY6bQh9ddE7JmZiqH4IL/nbdJk1SdZydlnMrK+0aqzqOKeedt05IG8eFYTF23X3We8t57QeQwKZ4w8gr47v1X1lG7mnYkLeZdOF/tAo6bRssob29Reh8Xb75BcXsVhf598w3R+7i4vYXeYhV5Xq5y1BH0lesxlJIStSuJgwt+jMp+dpdlMRH3oq2VoqNjD8nP7qJ6DcWQjCJz9ItFldSMFi/w6kRNS9l58yL4Iy9FUSOd//D/kVKJRsmNt3iB2gWwOWB1sXgBtS4YDpEqJSwTsVa1HVzwo0refMOKc9HcpG4mwdmSQlA/DSxZfhOYF9GogJ2ydIk+DE5geDRnRGdt6RIFfOT1+B+phcwsHBeiZ+9e8fTfxJ23i+/UKvPm0vbko45Q/2YcS0++U6vceTul2buXivvxdjGzkPqLx/+oK33IboML/rxcGl/ZiDNSpSp8hLtGSgzJbL4KwqvXh1UPX9mcEKzb10rMaG1p3wqh7kRK6sgwHQXvbnfuELNOpum99Hfp/PY+8vzNOjnQG64SSjKg4F/zPPXQy6oTgJ/PZuNAUcuqqUu2P6M2oVA8TfDSi+oavksvVt591y4rex1r96Vn74zWli6re35KFfeLe3SPA3GLoE/nnKXs2ZMuP3v2iHPOopYW6qNiAwr+H99Ckv3D/XaV1NykHizRUK/woVF/uJ8a349vses17Ih6/C62S6B7qpinvLHeLrOEOtbuY8/emVpb2tww8rrg/MDJf9MmWp8/ZZJrkTn6V6vTfuGNHxlQ8M+bS+C330Q5PERnM5YUjzsCdesWAv+8uYFrfIcO0YmaOGNn6ZLEJ2om1LFayPl2zUdNd3bQQZSm+cIrbvoqgw9xvsjl/5bi1k+jFfb55+Lyf6NWWne5uRwyWFiHWQcR/Hv3EoBPnulIptoDp1Dmk2dSlcA341AKPiT7cFv8RE0nAaET6lgfeDZmYWpt6ZJhwVKgRl4YRR59VIJxlq4gfGtlhb37rjj6KGpsgSoss53wIojgR0zOa6+Og18XyvoLV/lAv+UhqtdeTfXxpycSlt2nBIcOiRdfENhAdtbpTs1OJzrWpwJosjG1tjTv6RLH2t9yU7z6dAl8vv38cwp5ftQRSut/psiSjRXW+p9EeX5FigaFz6LQZRdE8F9z+Hx4oBen1paXkW2P1SOreskugLUfjeqKQ7foO66xMEpNPvD40fCQQDCi2pok9h050bEeM25J3mhtaZN+uI0qqGxOikjTknLl+oFu4udrX4kf8ZosWRsrbNdO8bWvkLJ5oDtZqplPH0Tww25HyMTODrKWhaCDn8rL6KKwQIGTv7bG/CTZTz9NYtTgdQ1sjqqzeuVlya0Jc6JjvWY+ZfrAQxBGXts/EifNID/fgz0pl4ZaoHFeick92EOev5NmhGBdM/OMi8CB39Rj19NNyIeHiVf7t7VaxoR24i/UCcKL22f7BCKLX/Jt5dVXUsnBXsemQtHBNzgmuLMjPrAa6Cf3Xm2NigErGn9/Sqy4VblwkboS9omVVgn9e37rD0ktL6pMywdkb4Xt3auu1Lz1h0ExdhzKN3Dgv/93pLd1c3WRKjL7G+oprJUT8GOm8P7fORSCJ8lGP1b35y+qDEccPj5jr7yMpk5LitXeFjJH+P0vdluY9kf9q+mICxxxw2tjMz7yemsDtZapk9MNLpjQCnvpRTXOVzBXN1m178CBH9PgODIJTGNgHz28DXP96+PAX1tj3te+sJaS2a8RspJI+s8PHBDP9onIQtI5c2YlWLc/PKSOa5AvlirjX1OYpc+eDQX46iDwgX6Vsdoa0vn4KlJlcvBe1+8pMAYwv3SJ8vO7aSXsF8s0ik40rx0bBtx9hXmHa+rVQ3isiDu0dGyq48ABAUcVC8oqr0A9Dxz4detzG+pV2x7TLWMxGvPjfIhIlf6gCK1kE64O1iZ293rjO+K8s1UwnDhd6fq9JfmxGC1VYFsGHVykioocqVIdnJYfe/CiuYny7ewgPwVvzissiK+hMg61un6vLnS/cBGNqzkY3lmnU7m2fOABl85I4vj246bZmV1jMRpOpmDpGFn44H31eJ/VzxhfBvRJsMAPxR5ZGNcY0Wh8JQ+W8fV0E/4LC6jOxmKWYoXiXf+6ZQKPXrz5hurhmztbWXY48P7MQkv887E2YAYTGR4x5oQsTtQuKSZVj3GWEKTDeQElhgNMipF/3TX6o8Rw4m2mRl5799Ia6imTFJtdoTwrmaylw8XXXfzsLvL8nVmaln9BR9PT22CB32pP7vBQ3PkEcSQ8CibhjmAvxPrCWtXDd9kyZeM7Yseouv1z7myT6f1VvaoVw5qfR9paxesFn1Y0AX6AAUOAsZge/IUFatfcv1q19q+7xmRj4ksv0oc1F8X7catMvXh+368p91NPsVMPQtDG0GQtHRtux2Li1FPI3rnv1zapAvQqWODHuXSuRONALJDKc/xrfLxuX3ui5saNakDeq+rGccLjl4F+aqZoEfBrtrXSuNp4+p0PrUar2MHY8BAZxqz5gRZwgkNsL1yk1/nMZ6ZGXls+oF51yqTEW26TtXS4aFYXj/+RlH9hQSbHO1a8GZ8HC/zu7gZPNgqYUToOnxw8SCdqnv8NQuySCK3b156o+WAPwXvKJOXvT8XpRarInT7QT+sX4EIfi5F1A60rBE2tYV1D/BvvrzDuwGgfQxJwUlJM8yy8ylUI8fenqJXn5drNn2dq5NX4A2LsWxdaHsLDgkzK0uGvbC4+/VSd4mn8wbi+3uaTDL4KEPihalw8Dh0nrts4ad2S+5YP1GgwSyImG7wPHVLX9q64Nd4geD6MLwb6RVtrfCKtuYl6B7c4dE4Hyh9coRcYi1FPhCd82DaG9EuX2B13gX7t7judZ+5CSkxMTp3s6HSdpCwdh8y9PqxO+yUcmTok6F2yAIH/phuohT30gGuFfegBUqo33eAthNa9rO7SnTeXZvVMfz+/mzi5cJEJJ1qzv6GeAA/9X1Jsvn7RlL7rD409ZjQat0qEUMcyP7/bLueNG6nUfo68hIgrXicxtpxbOnblHP/ui+B/bHqMfxO4uwCB3/VTN5I68yO1mhl8Lb5u3+bgl/7VBIPikxKAPxqlATZ0bEN9AmdVagy79VXxScRn/+oE9HDKDc//JUid9usn/0xynnGs8uE2p7QcWjpOyR1O9+E2MeNYks+Tf07qO78TBwX8OG9r1skm8EhHJLNOpjpIeNpXall89KG49GKiX16mDL5mR2PbVmqUUyc7Kl00qp/asCOdoXc4uNKmvwNfGHkl7CNcKcQnY2LOLPKt/PK/k6aX0NJJluIv/5t8InNmKZ+MJfupf+mDAn6PzntxeM5nCvJ+ti9+oubLLyU4UfPgwSTAnwIz/n8C8B88mCBnf0ZeYAIRxObN9aqvT1DU8a93f6Iex3DPT8e/CNKdT+Afi9E277ZWy50h9VeQCn36by7LButM66/Qq9yxmFjVS5529q4nlfGOUXVsuXhBgnBDIJuU5k+Kk0wldqj5d4xSrzdnll7+QoiEVkNSRRsZEcdMIbXvehNKig1t4qf/Rsr/mCnKyIj2cYCu/QA/9uSXFNOCirxc+tcoAMRC3r/f+CatJ/v3U+ObWTguRyzqBCdfDMV5HavznM4spYLIP+cScC7b1FJ+7yqqjtoa5bPPUiPg/leffaau9fzeVeOan/s5pUrRD/AjtDaW4mL6R8ct1rSffYYnMkIgDa2GBw940txkslNFx57xFr2Y86YvUxplaP8EMfNsTEXt5y+/RF38tCMDd1jTO2+LaUdSr/TyS1p+za8x19vT7Z/Hxw/wYxF1bQ3NYwEGutL/9j6qvNt+4gn4b/sJZaoN1e7K+hntvkNdceRtmhLAlAfCN+XlJpjyPHSIttMfdYQSnMBh2uLfchPxtqjSbkEEVlLl5dLSwMICaq7+rBHwA/zQtM1NNOBva6WyaaUjhLoGZt3Lusfu3K57mXqWpUvimWI6HdSHh2jwL3/BkQD2FPBYDF2ADXuPPUL1e9KMJEKk2VBz/dXoxxRK6IuNBo89YkkbC5MQqwYbPU2Hxpbfp/rCD/DX1qgrVXmwreN22pFOp8F0Hzq8nTqZbEJOjM4IszuIUcGv5EVAJDA8pHqItVuejbztGBWnFJGfL1PbB40sGZ/c/zvy/J1SZLL9CYnRIFnba4eoRmouPvED/FgTDnsGFp22eIOvUc+9JBIHp4vFA6klEep6tVPxvJcWC+xdzzHjBHUxQjLOj3MGWEPAIwv3itXnGNPNr3DhEB6rLNJ/vmcPhQ+2GdiamsPp55uQgh/gBxO68NvMGUp+byc/cP/i3k7qX3hrGjIYiwnua93PMtMUtauGM81LcvmjPbDZbwP+jRvFUUeQ2n9uILks/E/93AAp/6OOMN8BiSLzQqO21njoJE9Z9Q/8VsU4t5w6RU9Pp3/vPQL/ueUeGhdWpcvUc4B/LEZrGcLl1IANzNFyTT3EkOoVy6nl1F2uuD5D7Hqt7d8vcGTQFctNGiHG/JEqJRqlytKGTnKdEy3BDIMfS99OnG4iES2X6V+fOJ0aSsIVaelnFBAKAD/iHSV0mAeEZ7DBoc3g/UYcPqON9twAdehBXkKjkyqWIeXlmtspq3rj2zoiVT5t68gw+J95mqrQh9PO0O8+87SuRrL2FuCH/oRVqfWzBL/YCB9gxednn4lzy8ngv73Fc7VhxUMKz29vIZ7PLbdciTQ8lOKS0xSYEUJkGPxN15NCfvTh1JhP4qtHH6Zepun6MLWVJIpnSKod82MNFQ8pDWnD96C7i2rzX76a+iE8GSnzrp3iX75KDb67KyP56zPNMPhnH172s2unni3X73ftpOYyOxPhMVwvixOCWvBjSJk14P/oQ4oXPGWS8siDTiQRrDSPPEiev5mFykcfZp6xTILfZteHF4KZM4s63R2jXtAOHE2Av7mJRo8YNttEOg4c97YM3Xwj1WOkSvnnP23TBfLlP/9JpyHk5SpwiRESAAAdo0lEQVQ335h5IzST4H/kQdLGNzb6JIUbG0noYVQXKTRjgB/trKTYcjNlCpQz+8mbb1CbmTo5xePPMss8cn/1FTXO15tvZJidTIL/u5cRGv2J9CAExdjMy1W+e5lPfU2GK/bL7LPG2keBcKDTtVeHeOLm4EGBU+QzdaLUl00jow4/hDryLcbToUME/hnHTizwc01nwcXfn6IanH50OAJj2wh8ywcCoaW1AZ1t0nv0KmOaf9Mmqsj5Fb5CEassN23ySJiSrIcS2LOHDkSZMkkJcmwc5+W/56fk+TvjtEwuTM4Y+LGQy+e4znffST0OjvpzXk8yZRAk8KtfUt2dVhLoqHjOBfXJmDithIa9v/ql849cTpkx8F+4iEpuXLnlcvnGk8Okl2kI7fEJ5V2wJPDB+2QnT5mUPZ5LIWgl75RJNIr54P3MSDtj4EfoFf8Ljcgq/ucrc0xHAgjEunSJsm9fOmSC9e2+fWoki+u/7+vgl6WQGfBn8BTHmovI4njpRZZAWhfRKB1ilY79MtDvSdgmMDbQT+xp/3SsjsXorYtLAIaH0pKGaWW89ioZ/FMnK2+sN30f4odvrFen/V57NQOlyAz4W1YQArWhtXwrOkKGtaxIt6/FCZYcnK+wIH7SVlJlwUF9SX3iJDHW8zN7fKELEYPlAC5OB0aqzAO0OuHZKs03F1NrabpecXIIjxWRYD5XFIEV7t9cnG6DTKGAmQH/WadTdW75IAWG0/1kywekRs46PV1ZI7xUZwdpzp5ugYAzKahQj8DPmh+OVfBpNFKiUQqs5uKeH9fBjxO1TpweiPWw6TY+s+8/+lBgy6n/O68zAP59+wh+J81IF35mknT0DDHV0hw95uWOC/urizwXjapRqLRm9vAQIa2tlaYbuJvQgh/xW7VvAc7hIdqW39Y6Lso4H4Vgr7eNuh0hcTs7iEOwxOA3xswFS2BDe46oELT/rKebGAMnYEML/mhUZZvpO6oeTSKceP+FVyyDLnENO15d/uqX5Pk79RSfdvJyMTIA/r/+hcB/9ZUZA//VV5Ld8de/sBBSuSgppkCrPd0mezCHhygeQ16uGq0YEYSggUuK1YeFBWrxGfzoPjh+a3MTJQB0YbTDuMBzjnWFhzhC27QYRvDzEABnFjADWAusi5mL4QO4QqGgoHAWA8qItygmg18nhNT2qP/sLmoq5WXKnt2mhcuSh3t2q5v5f3aXryXKAPi9O0LLoeRcORqMGzcAoD1XEyE0oO4QLBBQ4fE2OgKoSmBvLEatnBHS3ER9Bxx1aP2wFCJV1OMIoQZBxoKFaJQGHVbneZuCv7CATH0MDbQZ8QoIhFrkjGprKFNtYFlsFkIZ0UHowI9OBAnAA7oth3UkhHjvPQp6/8UG+IkQheGZp0n5TzvS25BWOuFnAPynFFHLzmBfvmc3Ie2UIlX36iSS1O2qXtHcFFfmw0OEEG3kHJy3DZoAW1srgZz1rRZ7kSoaFLS10oACQQcBG44+CJgJoe4MQ+K2VtKNebnmRqMp+AFmtix44GCMmYsceTjKir2wIB5nDkXWgR99InNYWJC0I/CqOirUZcssQ18kVVMBT/zZZ+KyZVTeq+pcaJYOC+s3+Ld/RNgoPdVRCTEE5ZbnsEhOkpWeSoLe/pGTtCZpMFTWvoBfqrmJ1LXpEWBQ5lDjRvDD5i8vI4TwX0+3avYzOLXgB5w4caTKfMWUKfi5N+G3YzG1Q9HFzOUcUVgGv7aDE4KKbAp+LXtJaf4X1hLNaUeaR7zUSj5rrjduVI/38e08GL/Bj1buZDMzAn63tZKhy60/tZo2diLYE84hYpMlC6jreiUoQ+0BDFCtkSpyDcBBCOsdt1qzHyBkTI7FVCc8gxMcMhTRfbDXcFUv+d5MfzoKWqBqNT8os9kPq57NfqbM4MfQBs9RZCP4eZgjBHn+nFfigQOi6jyKdfujmx0pCWYv7Bc/uplKXXWecuCAH0XxG/ywbZzEWm5uUhfhw3RMWRimnQjCP162LPW2xV4ujMyBFiAQI3D4AiNVNChAIC2ovuEhdV5QC/6xGPkIS4pVDyKoIY4dDxC0UET3UVtDlFFALdK0snIIfrgh0J3hGgcrcXcDmgx+GDIN9bTeFj2RDvx4iHOQQZB7Fi17ptcI9FB0YuqRV4zdvWlGGX+o43PHqCg6kWxSf6JO+A1+7GR0IvRIlarwcc6nk09M01h1ItgcavqJk4e6RT7a/ULDQwKDdox7gSh+AhOAzWbGNjAMV3xhgdrx6aCrhaKWYHmZ5Vy9joKV5reKmavNEb4G7mWwuqGwIO6h0Cbg+QiUCGdRORHs6Mei+CTy86Uc6M60u3eStc9pTPns7iLPX/FJfpw+5iv439pA1u8F5zvSt5EqdRdHZwdhKeWKsepELjifuti3NqRMmD7E8ljtZD6TMx4KgsT2k96wI5iI/QXUvj1Bewq6tyCoe2h629MdPw5A6/DTJYbxwsMT3VvTW6z+rDxH2bvX9H3ih1bdfeIv/U1hyufevaLyHGqZ6S9CTVgaX8H/i3sI/A73Yzc3qcezNtSrzqSEhTFNYNWJ3PNTYuYX95h+JB8mkAB8MTgRROu/TPBZotfvvE2VMmWSsnZNoqTW7626e+svMvPGis+1a0j55+V6fuK4r+CHsnUYugxjY6ylSUp16GrSqhNBNDiHZoiOprwdi5E5xucvWrkbkxXU8ksJ/PVXpHUIj1V3nywzXqe34nP/flF/BYF/+aXesuAr+PNyleOmxQ142IS852wsplrReMLrQ9IUgE0nctw0EnGa9OXnbkkA7oljpiibo2mRtOru0yLqwcc2fG6OimOmUON0PkWSAoP+gX/N89Sp8/ISXqnCq00H+mlCiG953iuFUhk/MRUinOprnjcml0/8lsC+faJiHhn8d96ebtY23X26pF393p7PO28n479inochDPwD/y03UU9mah9GqtROIbXhvRMLwrTWMGF2y01S+ZuKx9eH9/+O+v2vfUWJ7UqQb083nUSg3f400E9jkNqacXF+TLv7BKRdfZ0mn7Fd6pSwd8a/f+Avm0Pg/3CbXsA93TTFjVE9L3FrazVfrKr/+PA9HE5sMji3ID7cRg2ubI4Ev6lc/Xu4batq8c2drfzhfst8MX1YXkYO4JJidVcllhjV1oxbNG1JwpcXbvH5g2sJMnm5yratnvDtE/j37lX7dWMhystUrz4GAnAglxSn4uFPwYL42ldIuCnPKhmLI5+kIIGbbqBawCj3qCOUm24wH/bDUmNnEFYc1NbEx5KRqnH7rFPgxJVP0udzc1TcdAOt9gP4zznLE/3kE/ifWEngP/UU5d5OseHNuITRbRtnqrH7JZ7OwVVqFsR/fI/k+8RKBxnIJN5I4I311DamTqZVPdddozb3ustNlmA0N5F67+wgs5/Hj9rT7FNoNl6UKU0+39ogcKg0fGSY9vMihJlP4GebPC9XmTOLtDoA39lBi0NRAVjiiqHaFyexJbUPRAjaEc2foIms6qVRk6njcMOb4t5OccVyOukVLc+LRiBpOpEAoir+4Fo6hEdRyOmLIAVG/GN8V1JMqh4rC3ULFjEccJKpp2nS4ZORX1JM3dyBAwLGf81F7it/n8CPQEWN19MpBegILl5K0xjNTePsNHj7S4qpgzeaAzYV5tyCQFAaHNqp7ZJsiMtX3kngqSdJ7R9/jLJ1SzyTRx4U8BDVXT7O/geo0DBgWusWF2LpUZxQhq5S5nNzVNX5ZXPiy/u3bhHHH0OoeepJl8vjB/i1YfM2bRJ33CZwMvfC+SbTmMZVsU5K7NCCGOgXFy9Ve58zTqMzQh99WMydTU8yElDQSdGyOM2e3eL0f6XpPeM6y0ceVPX/TTfENZ5WsWNRAHZYsHEHezvjEkuZT/g+SorjyEdZfnEPTfud/q8uR8HwA/yYxVlxa7wWn/yziCwkyJniP4XKc2JBDPSLhfMp09nFyh23CT60a8Wt9PD+36WQrfwkLQnA0Cs91fwQHrw96oi4/x87qTHax/pCIWiSD1HMeJ9MWjy58XFqfP7hfgEPn3H74ydjAhEojK/S4dcP8JuGyl+7RsX/xUuTs/AdllZnQTDyIwuVJ/88jkYGDxEYx8cEu3l/szhuGqn9Pz1hXnJFUf1/C+fHWwiUKsZr6AWw0BhP2H9kTtHHp8nyGY2qmum6a8wjlP/pCVL+x01T3t/sWjH8AD+mcIwsP/ln1f5ns82YxpUn0ahq7UcWmu8YwTyTK3lJIg4lgHmWmovsVrCtXaO2kI72cVSNC3gQknBcogDcOOezo518H7OLzdunEGLfPgEl+h/fi1vQaRbRc/Cvf51KFVlozvEdt9HbObMU7fxfmkUyfo5N6bOL9TqfU2IMsv51fiAvvJXAq69QvU870mQ+T5cxYi4tXpDNazH27hWLF9DY0z7C1Vsb1Dhfr76iE1KKt56D3/5g3E2b6NzlLzb83NuZYgESfrbhTQHf/h23WabF8NLnI4MtuZkAL9Db8tSsTYmfG6DRQV6u8vTfbFKF+9XTf6Ou8LhpSsIIVwigZKVKk5WC5+BHZIKNGy0Zu7GRqvaK5eamgeVnjl/c20mSPeM0hT18xk83bqQ0led4xYMxx4n8pPdxkvaJ050GUF26hFpI+ht+AivzO28ngSxdkrj5bf9IPd6n93EXSuMt+A8dolIdf4xdqR59mNJ4t8D+iuXUdG5stONBCHUq9dAhF2QqSdhIILaLhvFTJin3/dom1bhXt7dQDX6nNkENjvsmVDffqaUC3t7iqID3/Zo8f7OLE++ASigDb8Hfv5qAbV9tiO2l3eefkOmkEmC5yKMPJ/gIFdC/OkEy+TpNCdx1BzWJinlJTFnDUpg31xE20mQvI5/Pm0vgd6jM9+ymvc95ucpdd6TLrLfgx6KFhx6w4xJ7frwDP0aMCWP1PfQANUrtkhI7puW7lCSwaROdSD1lktL3jyS+R8ylGcdmLfhnHEtgdhjhSgjR9w9S/lMn241kncjXW/DD07Zj1I4Tf8CfcN/ejlEC/5xZWdvC7OrAr3dX/ju18u9epnz+eRJZYg3vUUdkbdVgbY/zWHWffy6+exlJ8sp/T0smHoJfu3I+RNdJtEqZNBkJwLkTopYQClYTjmdtqshD8GPHVSgkqGXSRljyVToSeGUd2Vbyz10JvLIu9TrxFvyp8yW/zEYJ7P5E7NyRjQXLRJl27hC7P0krYwn+tMQnP5YSCK8EJPjDW3eSc/clgFOVnPve3OfAR4oS/D4KW2YVeAkYjzYMPMupMyjBn7rs5JfZJwEJ/uyrU1kiKQFHEmDwD/SLtlbF9AhWR4TCkEhq/jDUkuTRLwkA/DghEicRuhs8x69yOMpHgt+RmGSiCSIBgD9SRWfGjMUotDSfKJN9EpDgz746lSVKXQIAP2t7BHowBuRJPYMgfWkJ/uEhkZEBT5r56s7t4yOAdYHAo1Hhbo0O9AtdFkGqZcmLUwnwmB8f6G6dUglJOkvwR6ooeL7/pUgzX4RMN66g1IUJRGAvF0uXl2t+OoiLWUhSPkhAp/kROcddPeFDKRxmkW3gZ83fUE/LyK00P3y5DmXkJJkEvxMpBT8NwF9STAf+DvTT2QElxRlQgf4IyhH4ccpNW2v8gDQwF43S4UqresexCly1tY47kGMsRsnaWscdojwWo891Eypazc8JdBZ1Tzd91dlhZ2nrdDuKAN5Qr2wLjMUECGo5Geinh1wWLQPDQ8Q24kbzuWNa8A8PqexNkIVi46o/5DcAP44Dw1F5GRn8+iPFxOCHOAoLlPIy0qXlZdQRwhGal0v9Iv4FGOAgQX+Zl6senocTi/EtEgtBuMVUCiiUl6lzqgz+4aFxCfgAL2YDn1uZZDrwoxQYDuAAv7xcKkg0qp4Mw+MFRrWWvcICNXQ8zmMoLCAnMDgHAwx+HCPFknESo9Kfmpa5JCWBsZidakmKVGATJwY/UAQl1tZK4IfC5+YO/GBGJFKl9g5C0FGqtTUEMAycYCAAhD3ddNDKF6H78BA4R2IGf20NJUC/i68a6mkChvMdixFuWYHrRGwKfkzhwAoA+NFbIRecFApPBz6H1xcHASIjdIKYBwKHWvCDQnkZ8SkE6X8uo449eSslkHEJJAY/VFlJMalxNoGgJ9msZb8IIF1eNs4mj1SRkuSiggjWUbS1Enr5eBMhaGYV8IPy1CaA0QGFjEOamQEmzhem4OcpHOPbnm7qpAoL1NyRgOmjx0EvwERgBWjBj04qUqUWCmKx6p6YVXkhJZARCSQGvxA0xIWxDdMdNj+gCKYZBmMxUnewhzFkEoKsd+PEQV6uijSgnTHPFwC/9i2IDA+R1YAuIC9X74ZgIRrhDf8fEvDb4SHV7C8sIDsFBwRDaWt5BviBbfZxoC8wgr+8jMrLfxhHMGMT+YL9r9oLrT/FoXB47x1fOPww5WSmGWlLob1mnWGfXWrTw6ac2Gdk9TYx+OH6wvAYqqynm0z6vNz4CWpQ+PCcsSUP62B4SF0mxRzU1qiqvrAgbg6s6lVdaDrw81edHeR+gwsQzWVVr50zluENCsAtgMoGOcYmhQVx3yT3U22t4zosrebnYbx2BYi2d+AE6ApTaNxc6iy7ME7BQm7JFpNrky9sKMB4tEng5JVpRqbF0eoYe8pplt2euJO3icEPFK3qJeDxNcYCtTWE/55u0u0wBLAccniIEnMHga/gGMc1vOjwCEajNBHA3kEGPzqUtlYaPwNmuIaKjkZpDVJJcdzFoCstMuKHusrjt/DrRqPEMHKEwjcFvxBkARUWUOfV062aDFrNDzOnpJjeRqMqQR4rMTMT9iIvV2moj8+/Qlum0DnCa4OVWgnBlhrGdHWkaz94y9q+vIzaId861Py6GTFdjla3ppxYJbZ/nhj87KtHP9dQr6prWAF4yC4utqLxHMNd7VigsCA+BcAOdh5NaMf8PKEAUnAHYgzCNn9hQdwNoSsnwxvPdSLjtzjXGVnA5oc9YgV+lAWufqPDTwjqkrTsyQG/tl7scYg5VHSmPIfKF0KoM68wQvFcV608NctDLVR0pEodHvK0LtuAINvTTRqIJ48xWYsuHkjWZaQtlLbRcmMDsHnyGD5y3fw0gx+TyjyBre07wAkGCDZF5vLqGLO/tQS/7jOMNHSdNLpe3UPUDUx0HRGtxPEKa3K0pdV9YpUgzVXAxlwc6meuTiFUg8VYKLQn0+e6fCfarQ34YUtiDhVaAQLUKnZtl43nWkyiL4Yjmc6GPbw+FaTgrmY1xvPTqPS21rgLqbNDnZzi6WqYtNqMjLXG5ipegU/ogIZ6mtKChwuOM542ZmnAXubpYR4Oa+nwvLKWE9iqEFphAXnZk/o5BX9SRLM4MWYuerppsIN2ZtNzZbEcUisaLCzdvyClnUNNAfza6Vgh1AEXKDPGgCUgBPPTmITCc4zUQEdn3kIDabshXfFNwY+ZaW1GrDCgqJkxlBc9ETuSmBOsODCCHwlgEWtH2TrebG4l+G2EY/JqeEj1ZUC3OLQXTAhNyEcQGk/fsitOB10GAKK/sw0FlMKwMmp+jLmwkBRQgYx1GOPcoYfZk6WtEPihMPQzzUib2Gj2g09mG4viMCSBeYLBoJYxngtnxQ5TiInwbDonQC4N9eq8MijzVJSOQ9NbCX5TsciHnkiAm7uOOho0N1xu3wA/P7cBv9ZDhJVmWMQFCgAbrGtoaf4Xg2rtvDVsafih2K2jZUnHvBX4ORlgDKue3dg6xnhemTNCYXlMzX2BLgEXBBdJDf4l+LmO5IXnErACPzQ/T5HqND87TaH9TDU/sGFMqcNYXq66+BIWOKCide4CWs1N49Zowo2frNnP0sSCF8AY9I2a3wh+lIjBjF5Dywl6B+4Z4S5NahAqwc91JC88l4DpVB+GTnCgwO8Ng5wdflhRvqpXnUaxAT/G89qUAH9DPc0KAU6Yn8Ysj3FaV9sN8UyQFnKmMoLW5VdsocDgx+IRDN1RNCfgx1JxTBuzS1LLSTRKfkRMMUaj6iS0BD/XgrwIlgR0rj7cAoG8LAKOcVazABJaOYOKTV++wBIMpq8dAANvyIVNehCENtZqfqz7YjpIjwVmzJJRpjbg5xVlXNiSYlrsoDNJjJofs2ZgAJPQ2OqiLTK6M1DGNmQjbzZPpOa3EY585bcEsHZL27555tgJK5h7Nmo/7cSw1fy0lr4VHW2apK5NZ8rtKWAhE5eFhzy6r0A5NcezBL9OmPI28xLQgT/zDGWIAyh8rD7ihecu8iLB76IwJSl3JCDBDzmu6qV9MRgH1dbEXZXuSFkICX63JCnpSAmETAIS/CGrMMmulIBbEpDgd0uSko6UQMgkIMEfsgqT7EoJuCUBCX63JCnpSAmETAIS/CGrMMmulIBbEpDgd0uSko6UQMgkIMEfsgqT7EoJuCUBCX63JCnpSAmETAIS/CGrMMmulIBbEpDgd0uSko6UQMgkIMEfsgqT7EoJuCUBCX63JCnpSAmETAIS/CGrMMmulIBbEpDgd0uSko6UQMgkIMEfsgqT7EoJuCUBCX63JCnpSAmETAIS/CGrMMmulIBbEpDgd0uSko6UQMgkIMEfsgqT7EoJuCUBCX63JCnpSAmETAIS/CGrMMmulIBbEpDgd0uSkk62SSAWi61cubKrqysWi2Vb2Q6XR4I/K6tVFsoFCbS0tOR8+RscHHSBYsBISPAHrEIkO25LYN26dZWVlRUVFQsWLDjvvPMWLFiwdu1aJ5mMjIzEYrGRkZH8/Py6ujonn4QrjQR/uOpLcpucBJ577rkTTjihsbFRCPGb3/zmscceu/zyy0844YRnn30WhFpaWqDVR0ZGWlpa8LDr8A/XWvDj+eDgYHt7e+zwr6urq729fWRkRAgRi8Xa29tbWlpWrlyJb/GEb3VZ9PX14cnIyEh7e3tfX58QYnBwsOXwDzTxqqurCwS1//b19SElRiWxWAzs8SClpaUFaUC5q6urpaWF3wp5Yo9WmvI6+yRQUVGxfPny0dHR0tLSxYsXV1dXr1+/fvny5RUVFShsaWlpdXX1F8eB1tXV5eTk9PX1xWKxnJyc9vZ2IURfX19OTk5+fj7wU1lZmZ+fX1RUlJOT09XVVXT4V1lZmZOTMzIyUldXl5+fX11dnZNDOrWrqysnJ6eoqCj/8G9kZATUkG9lZSXACfog1d7enpOTU1pamp+fj14pJyenurq6qKiotLRUWzvgFin7Dv+QC/4Ft6CMlKCgM2Gk5teKVF5nmwSKior279//9a9/vbGxcd++fTt37ozFYqOjo0VFRSgqIDo4OIjRfXV1dUtLS35+PjTkyMhIY2NjTk4OzH6AXwgxMjKycuXKnJyclStX9vX15efnd3V1NTY25ufnwygQQhQVFcHiiMViRUVFDHXkqwU/FPvIyAh/giwaGxuLior6+vrAJGwBfI6McB2Lxerq6iorK5kyujP0ZUKI0tJSvG1vb8/Pz0cyqflZDvIiOyVQVFQ0Ojp6wgknbN++XVvCE044gW9ZOUPx5ufnA7ScoPLwTwjBF0IIuANheAPYQgj0FF1dXSMjI+gaQKS6urqystJK80NRExoPGxTafNFraAcCGBpoiQshYCngQ5QC1NhgAfi1DEjws5zlRXZK4Ktf/erOnTuLioqam5uFEPv379dpfoYxdHt+fj5seCC5vb29q6uLuwMt+AGkxsZGuAB48A/sxWIxJB4cHASFrq4u2BddXV0wFtgWYPBXV1eXlpb29fUNHv6hK1m5cuXg4CAyGhwchAcBynxwcBA2P2wEmCFFRUUoC2t+ZluCPztbuSyVqQQqKirq6+ufeeaZoqKi6urqSy65ZN26dXV1dTzmh6MuPz8fRnVLSwtsZvYC5OTkVFZW4i2jCHlhOI3xQldXF0b7SA9/AdwBGGljHFFaWoqhOHQ10MjgHxwcRIKcnBw45/g2Pz9/cHCwuroadntfXx+/amlpGRkZ4dyrq6vBrQS/aZOQDyeKBODtb25u3rZt24oVK37zm9/ovP0QBE/jY26PpaO75ed8EYvFGLowyLUjcwzdtQ52pNE9YWq4GDn844cjIyNW7A0ODmpJJeSWaeJCOvx0ApG32SaBdevWLViwoKKiYvGXP4fz/NkmCEN5JPgNIpEPpAQmhgQk+CdGPctSSgkYJPD/AYf2+VNxns7gAAAAAElFTkSuQmCC;" vertex="1" parent="7">
                    <mxGeometry x="460" y="120" width="264.94" height="180" as="geometry"/>
                </mxCell>
                <mxCell id="11" value="&lt;font style=&quot;font-size: 12px;&quot;&gt;Enter 3 lengths of a triangle:&lt;/font&gt;" style="text;html=1;align=center;verticalAlign=middle;resizable=0;points=[];autosize=1;strokeColor=none;fillColor=none;fontSize=18;" vertex="1" parent="1">
                    <mxGeometry x="70" y="128" width="170" height="40" as="geometry"/>
                </mxCell>
                <mxCell id="13" value="" style="endArrow=none;html=1;fontSize=12;" edge="1" parent="1">
                    <mxGeometry width="50" height="50" relative="1" as="geometry">
                        <mxPoint x="80" y="220" as="sourcePoint"/>
                        <mxPoint x="210" y="220" as="targetPoint"/>
                    </mxGeometry>
                </mxCell>
                <mxCell id="15" value="" style="endArrow=none;html=1;fontSize=12;" edge="1" parent="1">
                    <mxGeometry width="50" height="50" relative="1" as="geometry">
                        <mxPoint x="80" y="262" as="sourcePoint"/>
                        <mxPoint x="210" y="262" as="targetPoint"/>
                        <Array as="points">
                            <mxPoint x="150" y="262"/>
                        </Array>
                    </mxGeometry>
                </mxCell>
                <mxCell id="16" value="" style="endArrow=none;html=1;fontSize=12;" edge="1" parent="1">
                    <mxGeometry width="50" height="50" relative="1" as="geometry">
                        <mxPoint x="81" y="302" as="sourcePoint"/>
                        <mxPoint x="211" y="302" as="targetPoint"/>
                    </mxGeometry>
                </mxCell>
                <mxCell id="17" value="Length selected" style="text;html=1;align=center;verticalAlign=middle;resizable=0;points=[];autosize=1;strokeColor=none;fillColor=none;fontSize=12;" vertex="1" parent="1">
                    <mxGeometry x="72" y="232" width="110" height="30" as="geometry"/>
                </mxCell>
                <mxCell id="18" value="Length selected" style="text;html=1;align=center;verticalAlign=middle;resizable=0;points=[];autosize=1;strokeColor=none;fillColor=none;fontSize=12;" vertex="1" parent="1">
                    <mxGeometry x="72" y="275" width="110" height="30" as="geometry"/>
                </mxCell>
            </root>
        </mxGraphModel>
    </diagram>
</mxfile>